<svg xmlns="http://www.w3.org/2000/svg" width="135" height="40" viewBox="0 0 135 40">
  <g id="Download_on_the_App_Store_Badge_US-UK_RGB_blk_092917" transform="translate(0 0)">
    <g id="Group_8" data-name="Group 8" transform="translate(0 0)">
      <g id="Group_6" data-name="Group 6">
        <path id="Path_26" data-name="Path 26" d="M124.249,0H10.757c-.414,0-.822,0-1.235,0C9.176,0,8.834.01,8.485.015A16.772,16.772,0,0,0,6.224.191,8.208,8.208,0,0,0,4.08.818,7.294,7.294,0,0,0,2.254,2,6.352,6.352,0,0,0,.924,3.618a6.093,6.093,0,0,0-.705,1.9,11.559,11.559,0,0,0-.2,2c-.01.307-.012.614-.017.921V31.558c.006.31.007.611.017.922a11.558,11.558,0,0,0,.2,2,6.08,6.08,0,0,0,.705,1.9A6.305,6.305,0,0,0,2.254,38,7.109,7.109,0,0,0,4.08,39.18a8.249,8.249,0,0,0,2.144.631,17.076,17.076,0,0,0,2.261.177c.349.007.691.011,1.037.011.413,0,.821,0,1.235,0H124.249c.405,0,.817,0,1.223,0,.344,0,.7,0,1.04-.011a16.853,16.853,0,0,0,2.256-.177,8.379,8.379,0,0,0,2.153-.631A7.111,7.111,0,0,0,132.746,38a6.5,6.5,0,0,0,1.333-1.614,6.091,6.091,0,0,0,.7-1.9,12.019,12.019,0,0,0,.209-2c0-.311,0-.611,0-.922.009-.363.009-.725.009-1.094V9.536c0-.366,0-.729-.009-1.092,0-.307,0-.614,0-.921a12.016,12.016,0,0,0-.209-2,6.1,6.1,0,0,0-.7-1.9,6.938,6.938,0,0,0-3.157-2.8,8.337,8.337,0,0,0-2.153-.627,16.555,16.555,0,0,0-2.256-.177c-.344,0-.7-.011-1.04-.013-.405,0-.817,0-1.223,0Z" transform="translate(0 0)" fill="#a6a6a6"/>
        <path id="Path_27" data-name="Path 27" d="M9.415,38.9c-.344,0-.679,0-1.02-.011a16.2,16.2,0,0,1-2.109-.162,7.278,7.278,0,0,1-1.869-.545,6.129,6.129,0,0,1-1.576-1.011A5.381,5.381,0,0,1,1.69,35.784a5.23,5.23,0,0,1-.613-1.647A10.916,10.916,0,0,1,.89,32.273c-.007-.21-.017-.908-.017-.908V8.4s.01-.687.017-.889A10.878,10.878,0,0,1,1.076,5.65,5.26,5.26,0,0,1,1.689,4a5.428,5.428,0,0,1,1.145-1.39A6.308,6.308,0,0,1,4.417,1.591,7.2,7.2,0,0,1,6.282,1.05,16.067,16.067,0,0,1,8.4.887L9.416.875H125.355l1.03.013a15.811,15.811,0,0,1,2.1.162,7.349,7.349,0,0,1,1.885.545A5.989,5.989,0,0,1,133.091,4a5.264,5.264,0,0,1,.6,1.639,11.43,11.43,0,0,1,.2,1.876c0,.282,0,.584,0,.885.009.373.009.728.009,1.085V30.291c0,.361,0,.714-.009,1.069,0,.323,0,.619,0,.924a11.2,11.2,0,0,1-.193,1.843,5.241,5.241,0,0,1-.609,1.66,5.545,5.545,0,0,1-1.146,1.378,6.133,6.133,0,0,1-1.579,1.017,7.251,7.251,0,0,1-1.882.547,16.012,16.012,0,0,1-2.109.162c-.33.007-.676.011-1.012.011l-1.223,0Z" transform="translate(0.112 0.112)"/>
      </g>
      <g id="_Group_" data-name="&lt;Group&gt;" transform="translate(11.25 6.903)">
        <g id="_Group_2" data-name="&lt;Group&gt;" transform="translate(-1 1)">
          <g id="_Group_3" data-name="&lt;Group&gt;">
            <path id="_Path_" data-name="&lt;Path&gt;" d="M26.665,21.112a5.583,5.583,0,0,1,2.659-4.684,5.715,5.715,0,0,0-4.5-2.434c-1.894-.2-3.731,1.134-4.7,1.134-.984,0-2.47-1.114-4.071-1.081a6,6,0,0,0-5.046,3.077c-2.182,3.778-.554,9.329,1.536,12.383,1.046,1.5,2.268,3.165,3.867,3.106,1.565-.065,2.149-1,4.038-1,1.871,0,2.42,1,4.051.96,1.679-.027,2.737-1.5,3.746-3.011a12.367,12.367,0,0,0,1.713-3.489,5.4,5.4,0,0,1-3.293-4.963Z" transform="translate(-9.972 -8.047)" fill="#fff"/>
            <path id="_Path_2" data-name="&lt;Path&gt;" d="M22.453,12.658A5.5,5.5,0,0,0,23.711,8.72a5.593,5.593,0,0,0-3.619,1.872,5.231,5.231,0,0,0-1.29,3.792,4.624,4.624,0,0,0,3.652-1.727Z" transform="translate(-8.841 -8.72)" fill="#fff"/>
          </g>
        </g>
        <g id="Group_7" data-name="Group 7" transform="translate(27.59 10.323)">
          <path id="Path_28" data-name="Path 28" d="M43.312,28.3h-5.34l-1.282,3.787H34.427l5.058-14.009h2.35l5.058,14.009h-2.3Zm-4.787-1.747h4.233l-2.087-6.145h-.058Z" transform="translate(-34.427 -17.844)" fill="#fff"/>
          <path id="Path_29" data-name="Path 29" d="M56.253,26.562c0,3.174-1.7,5.213-4.263,5.213a3.463,3.463,0,0,1-3.214-1.787h-.049v5.059h-2.1V21.455h2.029v1.7H48.7a3.623,3.623,0,0,1,3.252-1.806C54.544,21.348,56.253,23.4,56.253,26.562Zm-2.155,0c0-2.068-1.069-3.427-2.7-3.427-1.6,0-2.679,1.388-2.679,3.427C48.719,28.62,49.8,30,51.4,30c1.631,0,2.7-1.35,2.7-3.436Z" transform="translate(-32.863 -17.426)" fill="#fff"/>
          <path id="Path_30" data-name="Path 30" d="M66.217,26.562c0,3.174-1.7,5.213-4.263,5.213a3.463,3.463,0,0,1-3.214-1.787h-.049v5.059H56.6V21.455h2.029v1.7h.039a3.623,3.623,0,0,1,3.252-1.806C64.509,21.348,66.217,23.4,66.217,26.562Zm-2.155,0c0-2.068-1.069-3.427-2.7-3.427-1.6,0-2.679,1.388-2.679,3.427,0,2.058,1.077,3.436,2.679,3.436,1.631,0,2.7-1.35,2.7-3.436Z" transform="translate(-31.586 -17.426)" fill="#fff"/>
          <path id="Path_31" data-name="Path 31" d="M71.954,28.211c.155,1.389,1.5,2.3,3.349,2.3,1.767,0,3.039-.912,3.039-2.165,0-1.087-.767-1.738-2.582-2.185l-1.816-.437c-2.573-.621-3.767-1.824-3.767-3.777,0-2.417,2.106-4.077,5.1-4.077,2.96,0,4.99,1.66,5.058,4.077H78.216c-.127-1.4-1.282-2.242-2.971-2.242S72.4,20.56,72.4,21.8c0,.99.738,1.573,2.544,2.019l1.543.379c2.874.68,4.069,1.834,4.069,3.884,0,2.621-2.088,4.263-5.408,4.263-3.107,0-5.2-1.6-5.34-4.137Z" transform="translate(-29.893 -17.871)" fill="#fff"/>
          <path id="Path_32" data-name="Path 32" d="M83.754,19.3v2.417H85.7v1.66H83.754v5.631c0,.875.389,1.282,1.243,1.282a6.55,6.55,0,0,0,.69-.049v1.65a5.758,5.758,0,0,1-1.165.1c-2.068,0-2.874-.777-2.874-2.758V23.377H80.163v-1.66h1.485V19.3Z" transform="translate(-28.566 -17.688)" fill="#fff"/>
          <path id="Path_33" data-name="Path 33" d="M86.065,26.564c0-3.214,1.893-5.233,4.844-5.233s4.845,2.019,4.845,5.233S93.881,31.8,90.909,31.8,86.065,29.787,86.065,26.564Zm7.553,0c0-2.2-1.01-3.506-2.709-3.506S88.2,24.37,88.2,26.564c0,2.213,1.009,3.5,2.708,3.5s2.709-1.291,2.709-3.5Z" transform="translate(-27.81 -17.428)" fill="#fff"/>
          <path id="Path_34" data-name="Path 34" d="M96.186,21.455h2v1.738h.049a2.436,2.436,0,0,1,2.457-1.845,3.234,3.234,0,0,1,.718.078v1.961a2.931,2.931,0,0,0-.942-.127,2.113,2.113,0,0,0-2.185,2.35v6.058h-2.1Z" transform="translate(-26.513 -17.426)" fill="#fff"/>
          <path id="Path_35" data-name="Path 35" d="M110.431,28.671c-.282,1.854-2.088,3.127-4.4,3.127-2.971,0-4.816-1.991-4.816-5.185s1.854-5.282,4.727-5.282c2.826,0,4.6,1.941,4.6,5.038v.718h-7.214v.127a2.66,2.66,0,0,0,2.748,2.893,2.311,2.311,0,0,0,2.359-1.437Zm-7.087-3.048h5.106a2.456,2.456,0,0,0-2.505-2.592,2.586,2.586,0,0,0-2.6,2.592Z" transform="translate(-25.868 -17.428)" fill="#fff"/>
        </g>
      </g>
    </g>
    <g id="_Group_4" data-name="&lt;Group&gt;" transform="translate(40.242 8.233)">
      <g id="Group_9" data-name="Group 9">
        <path id="Path_36" data-name="Path 36" d="M38.1,8.732a2.978,2.978,0,0,1,3.167,3.345c0,2.151-1.162,3.387-3.167,3.387H35.671V8.732Zm-1.386,5.78h1.269a2.116,2.116,0,0,0,2.22-2.421,2.122,2.122,0,0,0-2.22-2.407H36.716Z" transform="translate(-35.671 -8.4)" fill="#fff"/>
        <path id="Path_37" data-name="Path 37" d="M41.682,12.744a2.407,2.407,0,1,1,4.791,0,2.407,2.407,0,1,1-4.791,0Zm3.76,0c0-1.1-.495-1.745-1.363-1.745s-1.362.644-1.362,1.745.49,1.749,1.362,1.749S45.442,13.849,45.442,12.744Z" transform="translate(-34.902 -8.223)" fill="#fff"/>
        <path id="Path_38" data-name="Path 38" d="M52.215,15.275h-1.04l-1.05-3.741h-.079L49,15.275H47.97l-1.4-5.08h1.017l.91,3.876h.075l1.044-3.876h.962l1.044,3.876H51.7l.906-3.876h1Z" transform="translate(-34.274 -8.212)" fill="#fff"/>
        <path id="Path_39" data-name="Path 39" d="M53.854,10.207h.965v.807h.075a1.521,1.521,0,0,1,1.516-.905A1.652,1.652,0,0,1,58.168,12v3.289h-1V12.25c0-.816-.355-1.222-1.1-1.222a1.165,1.165,0,0,0-1.213,1.287v2.972h-1Z" transform="translate(-33.341 -8.223)" fill="#fff"/>
        <path id="Path_40" data-name="Path 40" d="M59.094,8.437h1V15.5h-1Z" transform="translate(-32.669 -8.437)" fill="#fff"/>
        <path id="Path_41" data-name="Path 41" d="M61.219,12.744a2.407,2.407,0,1,1,4.792,0,2.407,2.407,0,1,1-4.792,0Zm3.76,0c0-1.1-.495-1.745-1.363-1.745s-1.362.644-1.362,1.745.49,1.749,1.362,1.749S64.979,13.849,64.979,12.744Z" transform="translate(-32.398 -8.223)" fill="#fff"/>
        <path id="Path_42" data-name="Path 42" d="M66.4,13.849c0-.914.681-1.442,1.889-1.517l1.376-.079v-.438c0-.537-.355-.84-1.04-.84-.56,0-.947.205-1.059.565H66.6c.1-.873.923-1.432,2.076-1.432,1.274,0,1.992.634,1.992,1.707v3.471H69.7v-.714H69.62a1.709,1.709,0,0,1-1.526.8,1.535,1.535,0,0,1-1.693-1.52Zm3.265-.434v-.425l-1.241.079c-.7.047-1.017.285-1.017.733s.4.723.942.723a1.2,1.2,0,0,0,1.315-1.111Z" transform="translate(-31.733 -8.223)" fill="#fff"/>
        <path id="Path_43" data-name="Path 43" d="M71.348,12.958c0-1.605.825-2.622,2.109-2.622a1.674,1.674,0,0,1,1.558.891h.075V8.437h1V15.5h-.961v-.8h-.079a1.763,1.763,0,0,1-1.6.886C72.165,15.584,71.348,14.567,71.348,12.958Zm1.036,0c0,1.077.508,1.726,1.357,1.726s1.367-.658,1.367-1.721-.528-1.726-1.367-1.726-1.357.653-1.357,1.721Z" transform="translate(-31.099 -8.437)" fill="#fff"/>
        <path id="Path_44" data-name="Path 44" d="M79.231,12.744a2.407,2.407,0,1,1,4.791,0,2.407,2.407,0,1,1-4.791,0Zm3.76,0c0-1.1-.495-1.745-1.363-1.745s-1.362.644-1.362,1.745.49,1.749,1.362,1.749S82.991,13.849,82.991,12.744Z" transform="translate(-30.09 -8.223)" fill="#fff"/>
        <path id="Path_45" data-name="Path 45" d="M84.669,10.207h.965v.807h.075a1.521,1.521,0,0,1,1.516-.905A1.652,1.652,0,0,1,88.984,12v3.289h-1V12.25c0-.816-.355-1.222-1.1-1.222a1.165,1.165,0,0,0-1.213,1.287v2.972h-1Z" transform="translate(-29.391 -8.223)" fill="#fff"/>
        <path id="Path_46" data-name="Path 46" d="M93.721,9.074v1.288h1.1v.844h-1.1v2.612c0,.532.219.765.718.765a3.347,3.347,0,0,0,.382-.023V15.4a3.289,3.289,0,0,1-.545.051c-1.115,0-1.559-.392-1.559-1.372V11.206h-.806v-.844h.806V9.074Z" transform="translate(-28.463 -8.355)" fill="#fff"/>
        <path id="Path_47" data-name="Path 47" d="M95.7,8.437H96.7v2.8h.079a1.563,1.563,0,0,1,1.549-.91,1.673,1.673,0,0,1,1.75,1.894V15.5h-1V12.468c0-.811-.378-1.222-1.086-1.222a1.187,1.187,0,0,0-1.279,1.288V15.5h-1Z" transform="translate(-27.977 -8.437)" fill="#fff"/>
        <path id="Path_48" data-name="Path 48" d="M105.28,13.914a2.062,2.062,0,0,1-2.2,1.47,2.307,2.307,0,0,1-2.346-2.622,2.343,2.343,0,0,1,2.342-2.654c1.413,0,2.266.966,2.266,2.561v.35h-3.587v.056a1.343,1.343,0,0,0,1.353,1.455,1.218,1.218,0,0,0,1.209-.616Zm-3.527-1.637h2.566a1.226,1.226,0,0,0-1.25-1.316,1.3,1.3,0,0,0-1.315,1.316Z" transform="translate(-27.336 -8.223)" fill="#fff"/>
      </g>
    </g>
  </g>
</svg>
