<svg id="gad-logo" xmlns="http://www.w3.org/2000/svg" width="154.98" height="25.905" viewBox="0 0 154.98 25.905">
  <g id="Сгруппировать_2334" data-name="Сгруппировать 2334">
    <g id="_073a6dff" data-name="#073a6dff" transform="translate(0 0.025)">
      <path id="Контур_11494" data-name="Контур 11494" d="M36.6,97.85a18.55,18.55,0,0,1,2.857-.092c2.986,0,5.97,0,8.954-.007a8.688,8.688,0,0,1,6.448,2.55,8.888,8.888,0,0,1-.011,11.522,8.458,8.458,0,0,1-6.211,2.54c-2.18,0-4.364.016-6.547-.011-.014,3.046.007,6.089-.009,9.135-1.822-.037-3.645.007-5.467-.028,0-8.536.03-17.074-.014-25.609m5.485,11.669c1.8,0,3.6,0,5.407,0a4.134,4.134,0,0,0,2.793-.889,3.43,3.43,0,0,0-.26-5.338c-1.211-.829-2.754-.657-4.142-.632-1.263-.023-2.527.03-3.788-.051C42.072,104.914,42.094,107.215,42.085,109.519Z" transform="translate(-36.6 -97.741)" fill="#fff"/>
      <path id="Контур_11495" data-name="Контур 11495" d="M136.02,98.481c1.7,0,3.39-.016,5.088.009,0,1.684-.009,3.37,0,5.056-1.691.025-3.383,0-5.076.016C136.022,101.866,136.045,100.173,136.02,98.481Z" transform="translate(-113.183 -98.3)" fill="#fff"/>
      <path id="Контур_11496" data-name="Контур 11496" d="M338.541,97.77c1.594,0,3.191,0,4.785,0,.014,8.572,0,17.143.009,25.713-1.6.011-3.2-.007-4.8.011Q338.537,110.634,338.541,97.77Z" transform="translate(-269.178 -97.757)" fill="#fff"/>
      <path id="Контур_11497" data-name="Контур 11497" d="M371.133,97.972a30.191,30.191,0,0,1,7.922,0c1.7.464,3.636,1.562,3.916,3.471a35.224,35.224,0,0,1,.085,5.279,4.826,4.826,0,0,1-3.356,4.008c-2.345.776-4.826,1.116-7.139,1.992-.763.269-.62,1.208-.731,1.842,2.051,0,4.1.016,6.156-.009-1.059,1.567-2.187,3.083-3.22,4.665-2.775.048-5.552.011-8.327.018.012-1.87,0-3.74,0-5.609a5.4,5.4,0,0,1,1.966-4.155,8.983,8.983,0,0,1,2.846-1.208c1.893-.611,3.822-1.1,5.706-1.739.988-.283.944-1.5.919-2.327-.055-.73-.087-1.861-1-2.015a12.025,12.025,0,0,0-3.87-.051c-1.275.462-1.135,2.1-1.142,3.2-1.771-.034-3.544.041-5.313-.071a22.175,22.175,0,0,1,.278-3.79A5.737,5.737,0,0,1,371.133,97.972Z" transform="translate(-290.675 -97.713)" fill="#fff"/>
      <path id="Контур_11498" data-name="Контур 11498" d="M159.14,120.607c1.181-.009,2.361,0,3.544-.007,0,1.188,0,2.377,0,3.565.85-.053,1.7-.053,2.55-.044,0,.829,0,1.658-.007,2.488-.79-.009-1.583-.009-2.373,0-.007-.781-.007-1.56,0-2.338-1.231.044-2.462.016-3.7.028C159.142,123.069,159.154,121.838,159.14,120.607Z" transform="translate(-130.992 -115.343)" fill="#fff"/>
      <path id="Контур_11499" data-name="Контур 11499" d="M422.032,121.844q3.811,0,7.626,0c-.016,3.79,0,7.578-.007,11.368h1.732q0,2.284,0,4.569-.868,0-1.734,0c.007,1.463-.007,2.926.012,4.392-1.718,0-3.439.009-5.157,0,.046-1.454-.012-2.908.025-4.362-4.635-.06-9.273-.023-13.908-.057a14.635,14.635,0,0,1,1.419-2.132c3.326-4.6,6.682-9.17,9.992-13.778m-2.426,11.182c1.537.021,3.073,0,4.61.014.1-2.145.085-4.3.133-6.441C422.728,128.712,421.212,130.9,419.606,133.026Z" transform="translate(-324.707 -116.3)" fill="#fff"/>
      <path id="Контур_11500" data-name="Контур 11500" d="M250.244,127.089a9.446,9.446,0,0,1,12.464-.248c2.54,2.269,3.331,5.862,3.163,9.142-4.544.014-9.085-.023-13.626.018a5.013,5.013,0,0,0,2.393,3.5,7.034,7.034,0,0,0,7.741-1.123c.756,1.045,1.417,2.155,2.2,3.181a11.239,11.239,0,0,1-7.778,2.591,9.6,9.6,0,0,1-7.429-3.3,10.456,10.456,0,0,1,.871-13.761m4.121,2.07a4.865,4.865,0,0,0-2.178,3.469c2.984.018,5.968,0,8.949.011a4.5,4.5,0,0,0-.983-2.55A4.674,4.674,0,0,0,254.365,129.159Z" transform="translate(-198.825 -118.435)" fill="#fff"/>
      <path id="Контур_11501" data-name="Контур 11501" d="M189.66,128.892q.775,0,1.555,0,0,.751,0,1.5-.775,0-1.546,0C189.662,129.892,189.662,129.391,189.66,128.892Z" transform="translate(-154.502 -121.729)" fill="#fff"/>
      <path id="Контур_11502" data-name="Контур 11502" d="M177.716,128.89c1.89,0,3.781,0,5.671,0-2.072,2.963-4.112,5.947-6.177,8.912q3.328,4.834,6.682,9.652-3.067.01-6.135,0c-1.243-1.787-2.492-3.57-3.73-5.359-1.24,1.8-2.508,3.572-3.779,5.347-1.93-.069-3.859-.007-5.788-.037Q171.1,138.16,177.716,128.89Z" transform="translate(-135.09 -121.729)" fill="#fff"/>
      <path id="Контур_11503" data-name="Контур 11503" d="M136.052,139.7c1.691,0,3.384-.007,5.074.007q0,8.035,0,16.068c-1.693.025-3.386.007-5.079.014Q136.06,147.742,136.052,139.7Z" transform="translate(-113.206 -130.055)" fill="#fff"/>
      <path id="Контур_11504" data-name="Контур 11504" d="M187.192,148.467l1.459-.007c0,.5,0,1,0,1.5H187.19C187.192,149.466,187.192,148.965,187.192,148.467Z" transform="translate(-152.599 -136.803)" fill="#fff"/>
    </g>
    <g id="_a92d32ff" data-name="#a92d32ff" transform="translate(107.781)">
      <path id="Контур_11505" data-name="Контур 11505" d="M518.97,99.755a4.052,4.052,0,0,1,3.666-2.141,4.19,4.19,0,0,1,3.227,2.152c2.837,5.037,5.589,10.123,8.559,15.082a3.978,3.978,0,0,0,3.356,2.184c3.018,0,6.034,0,9.053,0-.009-1.328,0-2.658-.007-3.985-3.455-.007-6.912,0-10.366,0,1.135-1.831,2.309-3.641,3.464-5.46,4.229-.034,8.46-.007,12.689-.014q0,7.877,0,15.753c-5.1.007-10.2-.007-15.3.007a8.334,8.334,0,0,1-5.384-2.106A19.42,19.42,0,0,1,527.3,115.3c-1.649-2.89-3.145-5.864-4.709-8.8a12.577,12.577,0,0,0-1.273,2.081c-2.745,4.9-5.467,9.82-8.216,14.722-2.419.136-4.858,0-7.281-.037C510.228,115.446,514.562,107.581,518.97,99.755Z" transform="translate(-505.82 -97.607)" fill="#d50000"/>
      <path id="Контур_11506" data-name="Контур 11506" d="M618.608,98.742c5.439-.351,10.9-.287,16.348-.211q-1.9,3.27-3.742,6.572c-3.448.032-6.9.009-10.343.011a4.862,4.862,0,0,0-2.2.246,8.8,8.8,0,0,0-3.09,3.034c-1.121-2.028-2.288-4.034-3.393-6.071C613.97,100.627,616.035,98.882,618.608,98.742Z" transform="translate(-587.757 -98.272)" fill="#d50000"/>
    </g>
  </g>
</svg>
