<svg xmlns="http://www.w3.org/2000/svg" width="141.585" height="41.748" viewBox="0 0 141.585 41.748"><path d="M2441.431,236.706h0v-.018h-10.878l-9.1-10.685h20.965c2.345-.021,9.657-2.381,9.67-9.734a10.338,10.338,0,0,0-9.907-10.565c-3.726-.009-.431.009-38.2,0l-9.1-10.688,47.263-.016.06.011.752.005c6.347.048,11.681,2.1,15.425,5.935,3.692,3.782,5.641,9.078,5.639,15.317a22.39,22.39,0,0,1-1.6,8.5,19.332,19.332,0,0,1-4.245,6.411,18.826,18.826,0,0,1-6.051,4.061,18.463,18.463,0,0,1-7.021,1.449c-1.016.008-2.248.014-3.662.019Z" transform="translate(-2322.431 -194.972)" fill="#fff"/><path d="M1.6,13H13.375l18.2,20.3H7.489V43.451H54.6L21.407,4.984s-1.913-2.822-6.96-2.671A9.145,9.145,0,0,0,8.023,5.519C6.713,6.826,1.6,13,1.6,13Z" transform="translate(48.905 -1.735)" fill="#fff"/><path d="M26.834,27.11H49.247v5.877s-19.612.06-19.735,0a9.685,9.685,0,0,1-9.671-9.734A10.19,10.19,0,0,1,29.38,12.682c4.171-.03,24.624,0,24.624,0L62.7,2S42.017,1.9,28.975,2,7.906,10.644,7.912,23.252,17.2,43.6,26.834,43.671s34.26,0,34.26,0V18.027H34.329Z" transform="translate(-7.912 -1.956)" fill="#d50000"/></svg>